<?xml version="1.0" encoding="UTF-8" standalone="no"?>
<svg width="1041px" height="99px" viewBox="0 0 1041 99" version="1.1" xmlns="http://www.w3.org/2000/svg" xmlns:xlink="http://www.w3.org/1999/xlink" xmlns:sketch="http://www.bohemiancoding.com/sketch/ns">
    <!-- Generator: Sketch 3.3.2 (12043) - http://www.bohemiancoding.com/sketch -->
    <title>Letterhead + THE EXPERT INSTITUTE</title>
    <desc>Created with Sketch.</desc>
    <defs></defs>
    <g id="Styleguide-" stroke="none" stroke-width="1" fill="none" fill-rule="evenodd" sketch:type="MSPage">
        <g id="รง" sketch:type="MSArtboardGroup" transform="translate(-186.000000, -87.000000)" fill="#FFFFFF">
            <g id="Letterhead-+-THE-EXPERT-INSTITUTE" sketch:type="MSLayerGroup" transform="translate(186.000000, 87.000000)">
                <text id="THE-EXPERT-INSTITUTE" sketch:type="MSTextLayer" font-family="Proxima Nova" font-size="80" font-weight="bold">
                    <tspan x="163" y="75">THE EXPERT INSTITUTE</tspan>
                </text>
                <g id="Diamonds-bg-Copy-4" sketch:type="MSShapeGroup">
                    <path d="M69.9829812,31.1989437 L51.3163146,12.532277 L14.0170188,49.8315728 L51.3503521,87.1649061 L70.0170188,68.4982394 L88.6836854,87.1649061 L125.982981,49.8656103 L88.6496479,12.532277 L69.9829812,31.1989437 Z" id="Mask-Copy-2" opacity="0"></path>
                    <path d="M70,78.6176471 L90.4166667,99 L140,49.5 L90.4166667,0 L70,20.3823529 L49.5833333,0 L0,49.5 L49.5833333,99 L70,78.6176471 Z M61.6875,28.6808824 L40.8333333,49.5 L57.4347594,66.0735245 L65.769426,57.7971245 L57.1666667,49.2088235 L90.125,16.3058824 L123.083333,49.2088235 L90.125,82.1117647 L78.3125,70.3191176 L99.1666667,49.5 L81.980287,32.342505 L73.6456203,40.618905 L82.25,49.2088235 L49.2916667,82.1117647 L16.3333333,49.2088235 L49.2916667,16.3058824 L61.6875,28.6808824 Z" id="Mask-Copy"></path>
                </g>
            </g>
        </g>
    </g>
</svg>