<?xml version="1.0" encoding="UTF-8" standalone="no"?>
<svg width="1041px" height="99px" viewBox="0 0 1041 99" version="1.1" xmlns="http://www.w3.org/2000/svg" xmlns:xlink="http://www.w3.org/1999/xlink" xmlns:sketch="http://www.bohemiancoding.com/sketch/ns">
    <!-- Generator: Sketch 3.5 (25232) - http://www.bohemiancoding.com/sketch -->
    <title>login-logo-dark</title>
    <desc>Created with Sketch.</desc>
    <defs></defs>
    <g id="Page-1" stroke="none" stroke-width="1" fill="none" fill-rule="evenodd" sketch:type="MSPage">
        <g id="login-logo-dark" sketch:type="MSLayerGroup">
            <g id="Letterhead-+-THE-EXPERT-INSTITUTE" sketch:type="MSShapeGroup">
                <g id="Styleguide-">
                    <g id="Artboard-5">
                        <g id="Letterhead-+-THE-EXPERT-INSTITUTE">
                            <g id="THE-EXPERT-INSTITUTE" transform="translate(165.000000, 20.000000)" fill="#2A5781">
                                <path d="M27.04,55 L27.04,11.64 L42.56,11.64 L42.56,1.64 L0,1.64 L0,11.64 L15.6,11.64 L15.6,55 L27.04,55 Z M97.84,55 L97.84,1.64 L86.4,1.64 L86.4,22.6 L61.2,22.6 L61.2,1.64 L49.84,1.64 L49.84,55 L61.2,55 L61.2,32.52 L86.4,32.52 L86.4,55 L97.84,55 Z M146.08,55 L146.08,45 L119.68,45 L119.68,32.84 L145.52,32.84 L145.52,22.84 L119.68,22.84 L119.68,11.64 L146.08,11.64 L146.08,1.64 L108.32,1.64 L108.32,55 L146.08,55 Z M213.28,55 L213.28,45 L186.88,45 L186.88,32.84 L212.72,32.84 L212.72,22.84 L186.88,22.84 L186.88,11.64 L213.28,11.64 L213.28,1.64 L175.52,1.64 L175.52,55 L213.28,55 Z M270.56,55 L251.2,27.56 L269.36,1.64 L255.68,1.64 L243.6,19.88 L231.36,1.64 L217.84,1.64 L236,27.64 L216.64,55 L230.16,55 L243.6,35.48 L256.96,55 L270.56,55 Z M286.96,55 L286.96,35.96 L300.56,35.96 C312.08,35.96 318.48,28.12 318.48,18.84 C318.48,9.48 312.16,1.64 300.56,1.64 L275.6,1.64 L275.6,55 L286.96,55 Z M298.96,25.96 L286.96,25.96 L286.96,11.64 L298.96,11.64 C303.44,11.64 306.88,14.36 306.88,18.84 C306.88,23.24 303.44,25.96 298.96,25.96 L298.96,25.96 Z M363.36,55 L363.36,45 L336.96,45 L336.96,32.84 L362.8,32.84 L362.8,22.84 L336.96,22.84 L336.96,11.64 L363.36,11.64 L363.36,1.64 L325.6,1.64 L325.6,55 L363.36,55 Z M415.52,55 L403.44,34.68 C409.2,33.32 415.2,28.2 415.2,18.84 C415.2,8.92 408.32,1.64 397.2,1.64 L372.24,1.64 L372.24,55 L383.6,55 L383.6,36.04 L391.92,36.04 L402.4,55 L415.52,55 Z M395.6,26.04 L383.6,26.04 L383.6,11.64 L395.6,11.64 C400.08,11.64 403.52,14.36 403.52,18.76 C403.52,23.32 400.08,26.04 395.6,26.04 L395.6,26.04 Z M446.64,55 L446.64,11.64 L462.16,11.64 L462.16,1.64 L419.6,1.64 L419.6,11.64 L435.2,11.64 L435.2,55 L446.64,55 Z M501.36,55 L501.36,1.64 L490,1.64 L490,55 L501.36,55 Z M559.68,55 L559.68,1.64 L548.32,1.64 L548.32,35.16 L523.6,1.64 L511.92,1.64 L511.92,55 L523.28,55 L523.28,20.2 L548.72,55 L559.68,55 Z M589.28,55.96 C603.6,55.96 610.64,48.6 610.64,38.84 C610.64,18.92 580,24.6 580,16.2 C580,13 582.72,10.92 587.52,10.92 C592.96,10.92 598.72,12.76 603.04,16.76 L609.36,8.28 C604.08,3.4 597.04,0.84 588.56,0.84 C576,0.84 568.32,8.2 568.32,17.08 C568.32,37.16 599.04,30.68 599.04,39.96 C599.04,43.08 596.08,45.88 589.76,45.88 C582.4,45.88 576.56,42.52 572.8,38.6 L566.56,47.48 C571.6,52.52 578.96,55.96 589.28,55.96 L589.28,55.96 Z M640.96,55 L640.96,11.64 L656.48,11.64 L656.48,1.64 L613.92,1.64 L613.92,11.64 L629.52,11.64 L629.52,55 L640.96,55 Z M675.12,55 L675.12,1.64 L663.76,1.64 L663.76,55 L675.12,55 Z M709.44,55 L709.44,11.64 L724.96,11.64 L724.96,1.64 L682.4,1.64 L682.4,11.64 L698,11.64 L698,55 L709.44,55 Z M756.32,55.96 C772.56,55.96 780.4,46.84 780.4,33.64 L780.4,1.64 L768.8,1.64 L768.8,33.32 C768.8,40.76 764.56,45.88 756.32,45.88 C748.08,45.88 743.76,40.76 743.76,33.32 L743.76,1.64 L732.24,1.64 L732.24,33.64 C732.24,46.84 740.08,55.96 756.32,55.96 L756.32,55.96 Z M814.72,55 L814.72,11.64 L830.24,11.64 L830.24,1.64 L787.68,1.64 L787.68,11.64 L803.28,11.64 L803.28,55 L814.72,55 Z M875.28,55 L875.28,45 L848.88,45 L848.88,32.84 L874.72,32.84 L874.72,22.84 L848.88,22.84 L848.88,11.64 L875.28,11.64 L875.28,1.64 L837.52,1.64 L837.52,55 L875.28,55 Z"></path>
                            </g>
                            <g id="Diamonds-bg-Copy-4">
                                <path d="M69.9829812,31.1989437 L51.3163146,12.532277 L14.0170188,49.8315728 L51.3503521,87.1649061 L70.0170188,68.4982394 L88.6836854,87.1649061 L125.982981,49.8656103 L88.6496479,12.532277 L69.9829812,31.1989437 L69.9829812,31.1989437 Z" id="Mask-Copy-2" fill="#FFFFFF"></path>
                                <path d="M70,78.6176471 L90.4166667,99 L140,49.5 L90.4166667,0 L70,20.3823529 L49.5833333,0 L0,49.5 L49.5833333,99 L70,78.6176471 L70,78.6176471 Z M61.6875,28.6808824 L40.8333333,49.5 L57.4347594,66.0735245 L65.769426,57.7971245 L57.1666667,49.2088235 L90.125,16.3058824 L123.083333,49.2088235 L90.125,82.1117647 L78.3125,70.3191176 L99.1666667,49.5 L81.980287,32.342505 L73.6456203,40.618905 L82.25,49.2088235 L49.2916667,82.1117647 L16.3333333,49.2088235 L49.2916667,16.3058824 L61.6875,28.6808824 L61.6875,28.6808824 Z" id="Mask-Copy" fill="#2A5781"></path>
                            </g>
                        </g>
                    </g>
                </g>
            </g>
        </g>
    </g>
</svg>