<?xml version="1.0" encoding="UTF-8" standalone="no"?>
<svg width="591px" height="50px" viewBox="0 0 591 50" version="1.1" xmlns="http://www.w3.org/2000/svg" xmlns:xlink="http://www.w3.org/1999/xlink" xmlns:sketch="http://www.bohemiancoding.com/sketch/ns">
    <!-- Generator: Sketch 3.4.1 (15681) - http://www.bohemiancoding.com/sketch -->
    <title>Wordmark - Print</title>
    <desc>Created with Sketch.</desc>
    <defs></defs>
    <g id="Styleguide-" stroke="none" stroke-width="1" fill="none" fill-rule="evenodd" sketch:type="MSPage">
        <g id="LOGO" sketch:type="MSArtboardGroup" transform="translate(-2910.000000, -2247.000000)" fill="#000000">
            <g id="Wordmark---Print" sketch:type="MSLayerGroup" transform="translate(2910.000000, 2247.000000)">
                <path d="M93.2845895,40.6103286 L93.2845895,15.1643192 L102.387814,15.1643192 L102.387814,9.29577465 L77.4243323,9.29577465 L77.4243323,15.1643192 L86.5744807,15.1643192 L86.5744807,40.6103286 L93.2845895,40.6103286 Z M134.812186,40.6103286 L134.812186,9.29577465 L128.102077,9.29577465 L128.102077,21.5962441 L113.321068,21.5962441 L113.321068,9.29577465 L106.657883,9.29577465 L106.657883,40.6103286 L113.321068,40.6103286 L113.321068,27.4178404 L128.102077,27.4178404 L128.102077,40.6103286 L134.812186,40.6103286 Z M163.10726,40.6103286 L163.10726,34.741784 L147.622394,34.741784 L147.622394,27.6056338 L162.778793,27.6056338 L162.778793,21.7370892 L147.622394,21.7370892 L147.622394,15.1643192 L163.10726,15.1643192 L163.10726,9.29577465 L140.959209,9.29577465 L140.959209,40.6103286 L163.10726,40.6103286 Z M202.523284,40.6103286 L202.523284,34.741784 L187.038417,34.741784 L187.038417,27.6056338 L202.194817,27.6056338 L202.194817,21.7370892 L187.038417,21.7370892 L187.038417,15.1643192 L202.523284,15.1643192 L202.523284,9.29577465 L180.375232,9.29577465 L180.375232,40.6103286 L202.523284,40.6103286 Z M236.120752,40.6103286 L224.765183,24.5070423 L235.416894,9.29577465 L227.392918,9.29577465 L220.307418,20 L213.128071,9.29577465 L205.197943,9.29577465 L215.849654,24.5539906 L204.494085,40.6103286 L212.424214,40.6103286 L220.307418,29.1549296 L228.143699,40.6103286 L236.120752,40.6103286 Z M245.740138,40.6103286 L245.740138,29.4366197 L253.717191,29.4366197 C260.474224,29.4366197 264.228131,24.8356808 264.228131,19.3896714 C264.228131,13.8967136 260.521147,9.29577465 253.717191,9.29577465 L239.076954,9.29577465 L239.076954,40.6103286 L245.740138,40.6103286 Z M252.778714,23.5680751 L245.740138,23.5680751 L245.740138,15.1643192 L252.778714,15.1643192 C255.406449,15.1643192 257.424174,16.7605634 257.424174,19.3896714 C257.424174,21.971831 255.406449,23.5680751 252.778714,23.5680751 L252.778714,23.5680751 Z M290.552404,40.6103286 L290.552404,34.741784 L275.067537,34.741784 L275.067537,27.6056338 L290.223937,27.6056338 L290.223937,21.7370892 L275.067537,21.7370892 L275.067537,15.1643192 L290.552404,15.1643192 L290.552404,9.29577465 L268.404352,9.29577465 L268.404352,40.6103286 L290.552404,40.6103286 Z M321.146746,40.6103286 L314.061246,28.685446 C317.439763,27.8873239 320.95905,24.8826291 320.95905,19.3896714 C320.95905,13.5680751 316.9236,9.29577465 310.401187,9.29577465 L295.76095,9.29577465 L295.76095,40.6103286 L302.424135,40.6103286 L302.424135,29.4835681 L307.304214,29.4835681 L313.451236,40.6103286 L321.146746,40.6103286 Z M309.46271,23.6150235 L302.424135,23.6150235 L302.424135,15.1643192 L309.46271,15.1643192 C312.090445,15.1643192 314.10817,16.7605634 314.10817,19.342723 C314.10817,22.0187793 312.090445,23.6150235 309.46271,23.6150235 L309.46271,23.6150235 Z M339.400119,40.6103286 L339.400119,15.1643192 L348.503343,15.1643192 L348.503343,9.29577465 L323.539862,9.29577465 L323.539862,15.1643192 L332.69001,15.1643192 L332.69001,40.6103286 L339.400119,40.6103286 Z M371.496024,40.6103286 L371.496024,9.29577465 L364.832839,9.29577465 L364.832839,40.6103286 L371.496024,40.6103286 Z M405.703501,40.6103286 L405.703501,9.29577465 L399.040317,9.29577465 L399.040317,28.9671362 L384.540851,9.29577465 L377.68997,9.29577465 L377.68997,40.6103286 L384.353155,40.6103286 L384.353155,20.1877934 L399.274936,40.6103286 L405.703501,40.6103286 Z M423.065321,41.1737089 C431.464688,41.1737089 435.593986,36.8544601 435.593986,31.1267606 C435.593986,19.4366197 417.622156,22.7699531 417.622156,17.8403756 C417.622156,15.9624413 419.217567,14.741784 422.032997,14.741784 C425.223818,14.741784 428.602334,15.8215962 431.136222,18.1690141 L434.843205,13.1924883 C431.746231,10.3286385 427.616934,8.82629108 422.643007,8.82629108 C415.275964,8.82629108 410.771276,13.1455399 410.771276,18.3568075 C410.771276,30.1408451 428.79003,26.3380282 428.79003,31.7840376 C428.79003,33.6150235 427.053848,35.258216 423.346864,35.258216 C419.029871,35.258216 415.604431,33.286385 413.399011,30.9859155 L409.738952,36.1971831 C412.695153,39.1549296 417.012146,41.1737089 423.065321,41.1737089 L423.065321,41.1737089 Z M453.378121,40.6103286 L453.378121,15.1643192 L462.481345,15.1643192 L462.481345,9.29577465 L437.517864,9.29577465 L437.517864,15.1643192 L446.668012,15.1643192 L446.668012,40.6103286 L453.378121,40.6103286 Z M473.414599,40.6103286 L473.414599,9.29577465 L466.751414,9.29577465 L466.751414,40.6103286 L473.414599,40.6103286 Z M493.544926,40.6103286 L493.544926,15.1643192 L502.64815,15.1643192 L502.64815,9.29577465 L477.684669,9.29577465 L477.684669,15.1643192 L486.834817,15.1643192 L486.834817,40.6103286 L493.544926,40.6103286 Z M521.042295,41.1737089 C530.567834,41.1737089 535.16637,35.8215962 535.16637,28.0751174 L535.16637,9.29577465 L528.362413,9.29577465 L528.362413,27.8873239 C528.362413,32.2535211 525.87545,35.258216 521.042295,35.258216 C516.209139,35.258216 513.675252,32.2535211 513.675252,27.8873239 L513.675252,9.29577465 L506.91822,9.29577465 L506.91822,28.0751174 C506.91822,35.8215962 511.516756,41.1737089 521.042295,41.1737089 L521.042295,41.1737089 Z M555.296696,40.6103286 L555.296696,15.1643192 L564.399921,15.1643192 L564.399921,9.29577465 L539.436439,9.29577465 L539.436439,15.1643192 L548.586588,15.1643192 L548.586588,40.6103286 L555.296696,40.6103286 Z M590.818042,40.6103286 L590.818042,34.741784 L575.333175,34.741784 L575.333175,27.6056338 L590.489575,27.6056338 L590.489575,21.7370892 L575.333175,21.7370892 L575.333175,15.1643192 L590.818042,15.1643192 L590.818042,9.29577465 L568.66999,9.29577465 L568.66999,40.6103286 L590.818042,40.6103286 Z" id="THE-EXPERT-INSTITUTE" sketch:type="MSShapeGroup"></path>
                <g id="Mark" transform="translate(0.000000, 0.058685)" sketch:type="MSShapeGroup">
                    <path d="M35.1928783,39.6126761 L45.4574679,49.8826291 L70.3857567,24.9413146 L45.4574679,-4.05647738e-14 L35.1928783,10.2699531 L24.9282888,-4.05647738e-14 L0,24.9413146 L24.9282888,49.8826291 L35.1928783,39.6126761 Z M31.013724,14.4512911 L20.529179,24.9413146 L28.8756357,33.2921325 L33.0659344,29.1219447 L28.7408506,24.7946009 L45.3108309,8.21596244 L61.8808111,24.7946009 L45.3108309,41.3732394 L39.3720326,35.431338 L49.8565776,24.9413146 L41.2160324,16.2962544 L37.0257337,20.4664422 L41.351632,24.7946009 L24.7816518,41.3732394 L8.21167161,24.7946009 L24.7816518,8.21596244 L31.013724,14.4512911 Z" id="Mask-Copy"></path>
                </g>
            </g>
        </g>
    </g>
</svg>